<svg width="412" height="837" viewBox="0 0 412 837" fill="none" xmlns="http://www.w3.org/2000/svg">
<g clip-path="url(#clip0_4001_2508)">
<rect width="412" height="837" fill="#D9D9D9"/>
<path d="M-1.15332 0L13.1261 18.5814L27.4106 0L41.6951 18.5814L55.9796 0L70.259 18.5814L84.5436 0L98.8281 18.5814L113.113 0L127.397 18.5814L141.682 0L155.961 18.5814L170.246 0L184.53 18.5814L198.82 0L213.104 18.5814L227.389 0L241.673 18.5814L255.958 0L270.242 18.5814L284.532 0L298.816 18.5814L313.101 0L327.385 18.5814L341.67 0L355.959 18.5814L370.244 0L384.533 18.5814L398.823 0L413.113 18.5814" stroke="#0D3B66" stroke-opacity="0.025" stroke-width="5" stroke-miterlimit="10" stroke-linecap="round"/>
<path d="M-1.15332 148.818L13.1261 167.4L27.4106 148.818L41.6951 167.4L55.9796 148.818L70.259 167.4L84.5436 148.818L98.8281 167.4L113.113 148.818L127.397 167.4L141.682 148.818L155.961 167.4L170.246 148.818L184.53 167.4L198.82 148.818L213.104 167.4L227.389 148.818L241.673 167.4L255.958 148.818L270.242 167.4L284.532 148.818L298.816 167.4L313.101 148.818L327.385 167.4L341.67 148.818L355.959 167.4L370.244 148.818L384.533 167.4L398.823 148.818L413.113 167.4" stroke="#0D3B66" stroke-opacity="0.025" stroke-width="5" stroke-miterlimit="10" stroke-linecap="round"/>
<path d="M-1.15332 465.037L13.1261 483.619L27.4106 465.037L41.6951 483.619L55.9796 465.037L70.259 483.619L84.5436 465.037L98.8281 483.619L113.113 465.037L127.397 483.619L141.682 465.037L155.961 483.619L170.246 465.037L184.53 483.619L198.82 465.037L213.104 483.619L227.389 465.037L241.673 483.619L255.958 465.037L270.242 483.619L284.532 465.037L298.816 483.619L313.101 465.037L327.385 483.619L341.67 465.037L355.959 483.619L370.244 465.037L384.533 483.619L398.823 465.037L413.113 483.619" stroke="#0D3B66" stroke-opacity="0.025" stroke-width="5" stroke-miterlimit="10" stroke-linecap="round"/>
<path d="M-1.15332 297.637L13.1261 316.219L27.4106 297.637L41.6951 316.219L55.9796 297.637L70.259 316.219L84.5436 297.637L98.8281 316.219L113.113 297.637L127.397 316.219L141.682 297.637L155.961 316.219L170.246 297.637L184.53 316.219L198.82 297.637L213.104 316.219L227.389 297.637L241.673 316.219L255.958 297.637L270.242 316.219L284.532 297.637L298.816 316.219L313.101 297.637L327.385 316.219L341.67 297.637L355.959 316.219L370.244 297.637L384.533 316.219L398.823 297.637L413.113 316.219" stroke="#0D3B66" stroke-opacity="0.025" stroke-width="5" stroke-miterlimit="10" stroke-linecap="round"/>
<path d="M-1.15332 613.772L13.1261 632.437L27.4106 613.772L41.6951 632.437L55.9796 613.772L70.259 632.437L84.5436 613.772L98.8281 632.437L113.113 613.772L127.397 632.437L141.682 613.772L155.961 632.437L170.246 613.772L184.53 632.437L198.82 613.772L213.104 632.437L227.389 613.772L241.673 632.437L255.958 613.772L270.242 632.437L284.532 613.772L298.816 632.437L313.101 613.772L327.385 632.437L341.67 613.772L355.959 632.437L370.244 613.772L384.533 632.437L398.823 613.772L413.113 632.437" stroke="#0D3B66" stroke-opacity="0.025" stroke-width="5" stroke-miterlimit="10" stroke-linecap="round"/>
<path d="M-1.15332 74.4092L13.1261 92.9906L27.4106 74.4092L41.6951 92.9906L55.9796 74.4092L70.259 92.9906L84.5436 74.4092L98.8281 92.9906L113.113 74.4092L127.397 92.9906L141.682 74.4092L155.961 92.9906L170.246 74.4092L184.53 92.9906L198.82 74.4092L213.104 92.9906L227.389 74.4092L241.673 92.9906L255.958 74.4092L270.242 92.9906L284.532 74.4092L298.816 92.9906L313.101 74.4092L327.385 92.9906L341.67 74.4092L355.959 92.9906L370.244 74.4092L384.533 92.9906L398.823 74.4092L413.113 92.9906" stroke="#0D3B66" stroke-opacity="0.025" stroke-width="5" stroke-miterlimit="10" stroke-linecap="round"/>
<path d="M-1.15332 223.228L13.1261 241.809L27.4106 223.228L41.6951 241.809L55.9796 223.228L70.259 241.809L84.5436 223.228L98.8281 241.809L113.113 223.228L127.397 241.809L141.682 223.228L155.961 241.809L170.246 223.228L184.53 241.809L198.82 223.228L213.104 241.809L227.389 223.228L241.673 241.809L255.958 223.228L270.242 241.809L284.532 223.228L298.816 241.809L313.101 223.228L327.385 241.809L341.67 223.228L355.959 241.809L370.244 223.228L384.533 241.809L398.823 223.228L413.113 241.809" stroke="#0D3B66" stroke-opacity="0.025" stroke-width="5" stroke-miterlimit="10" stroke-linecap="round"/>
<path d="M-1.15332 539.363L13.1261 558.028L27.4106 539.363L41.6951 558.028L55.9796 539.363L70.259 558.028L84.5436 539.363L98.8281 558.028L113.113 539.363L127.397 558.028L141.682 539.363L155.961 558.028L170.246 539.363L184.53 558.028L198.82 539.363L213.104 558.028L227.389 539.363L241.673 558.028L255.958 539.363L270.242 558.028L284.532 539.363L298.816 558.028L313.101 539.363L327.385 558.028L341.67 539.363L355.959 558.028L370.244 539.363L384.533 558.028L398.823 539.363L413.113 558.028" stroke="#0D3B66" stroke-opacity="0.025" stroke-width="5" stroke-miterlimit="10" stroke-linecap="round"/>
<path d="M-1.15332 371.963L13.1261 390.628L27.4106 371.963L41.6951 390.628L55.9796 371.963L70.259 390.628L84.5436 371.963L98.8281 390.628L113.113 371.963L127.397 390.628L141.682 371.963L155.961 390.628L170.246 371.963L184.53 390.628L198.82 371.963L213.104 390.628L227.389 371.963L241.673 390.628L255.958 371.963L270.242 390.628L284.532 371.963L298.816 390.628L313.101 371.963L327.385 390.628L341.67 371.963L355.959 390.628L370.244 371.963L384.533 390.628L398.823 371.963L413.113 390.628" stroke="#0D3B66" stroke-opacity="0.025" stroke-width="5" stroke-miterlimit="10" stroke-linecap="round"/>
<path d="M-1.15332 688.181L13.1261 706.763L27.4106 688.181L41.6951 706.763L55.9796 688.181L70.259 706.763L84.5436 688.181L98.8281 706.763L113.113 688.181L127.397 706.763L141.682 688.181L155.961 706.763L170.246 688.181L184.53 706.763L198.82 688.181L213.104 706.763L227.389 688.181L241.673 706.763L255.958 688.181L270.242 706.763L284.532 688.181L298.816 706.763L313.101 688.181L327.385 706.763L341.67 688.181L355.959 706.763L370.244 688.181L384.533 706.763L398.823 688.181L413.113 706.763" stroke="#0D3B66" stroke-opacity="0.025" stroke-width="5" stroke-miterlimit="10" stroke-linecap="round"/>
<path d="M-1.15332 762.591L13.1261 781.172L27.4106 762.591L41.6951 781.172L55.9796 762.591L70.259 781.172L84.5436 762.591L98.8281 781.172L113.113 762.591L127.397 781.172L141.682 762.591L155.961 781.172L170.246 762.591L184.53 781.172L198.82 762.591L213.104 781.172L227.389 762.591L241.673 781.172L255.958 762.591L270.242 781.172L284.532 762.591L298.816 781.172L313.101 762.591L327.385 781.172L341.67 762.591L355.959 781.172L370.244 762.591L384.533 781.172L398.823 762.591L413.113 781.172" stroke="#0D3B66" stroke-opacity="0.025" stroke-width="5" stroke-miterlimit="10" stroke-linecap="round"/>
<path d="M-1.15332 37.1626L13.1261 55.8277L27.4106 37.1626L41.6951 55.8277L55.9796 37.1626L70.259 55.8277L84.5436 37.1626L98.8281 55.8277L113.113 37.1626L127.397 55.8277L141.682 37.1626L155.961 55.8277L170.246 37.1626L184.53 55.8277L198.82 37.1626L213.104 55.8277L227.389 37.1626L241.673 55.8277L255.958 37.1626L270.242 55.8277L284.532 37.1626L298.816 55.8277L313.101 37.1626L327.385 55.8277L341.67 37.1626L355.959 55.8277L370.244 37.1626L384.533 55.8277L398.823 37.1626L413.113 55.8277" stroke="#0D3B66" stroke-opacity="0.025" stroke-width="5" stroke-miterlimit="10" stroke-linecap="round"/>
<path d="M-1.15332 185.981L13.1261 204.563L27.4106 185.981L41.6951 204.563L55.9796 185.981L70.259 204.563L84.5436 185.981L98.8281 204.563L113.113 185.981L127.397 204.563L141.682 185.981L155.961 204.563L170.246 185.981L184.53 204.563L198.82 185.981L213.104 204.563L227.389 185.981L241.673 204.563L255.958 185.981L270.242 204.563L284.532 185.981L298.816 204.563L313.101 185.981L327.385 204.563L341.67 185.981L355.959 204.563L370.244 185.981L384.533 204.563L398.823 185.981L413.113 204.563" stroke="#0D3B66" stroke-opacity="0.025" stroke-width="5" stroke-miterlimit="10" stroke-linecap="round"/>
<path d="M-1.15332 502.2L13.1261 520.782L27.4106 502.2L41.6951 520.782L55.9796 502.2L70.259 520.782L84.5436 502.2L98.8281 520.782L113.113 502.2L127.397 520.782L141.682 502.2L155.961 520.782L170.246 502.2L184.53 520.782L198.82 502.2L213.104 520.782L227.389 502.2L241.673 520.782L255.958 502.2L270.242 520.782L284.532 502.2L298.816 520.782L313.101 502.2L327.385 520.782L341.67 502.2L355.959 520.782L370.244 502.2L384.533 520.782L398.823 502.2L413.113 520.782" stroke="#0D3B66" stroke-opacity="0.025" stroke-width="5" stroke-miterlimit="10" stroke-linecap="round"/>
<path d="M-1.15332 334.8L13.1261 353.381L27.4106 334.8L41.6951 353.381L55.9796 334.8L70.259 353.381L84.5436 334.8L98.8281 353.381L113.113 334.8L127.397 353.381L141.682 334.8L155.961 353.381L170.246 334.8L184.53 353.381L198.82 334.8L213.104 353.381L227.389 334.8L241.673 353.381L255.958 334.8L270.242 353.381L284.532 334.8L298.816 353.381L313.101 334.8L327.385 353.381L341.67 334.8L355.959 353.381L370.244 334.8L384.533 353.381L398.823 334.8L413.113 353.381" stroke="#0D3B66" stroke-opacity="0.025" stroke-width="5" stroke-miterlimit="10" stroke-linecap="round"/>
<path d="M-1.15332 651.019L13.1261 669.6L27.4106 651.019L41.6951 669.6L55.9796 651.019L70.259 669.6L84.5436 651.019L98.8281 669.6L113.113 651.019L127.397 669.6L141.682 651.019L155.961 669.6L170.246 651.019L184.53 669.6L198.82 651.019L213.104 669.6L227.389 651.019L241.673 669.6L255.958 651.019L270.242 669.6L284.532 651.019L298.816 669.6L313.101 651.019L327.385 669.6L341.67 651.019L355.959 669.6L370.244 651.019L384.533 669.6L398.823 651.019L413.113 669.6" stroke="#0D3B66" stroke-opacity="0.025" stroke-width="5" stroke-miterlimit="10" stroke-linecap="round"/>
<path d="M-1.15332 111.572L13.1261 130.237L27.4106 111.572L41.6951 130.237L55.9796 111.572L70.259 130.237L84.5436 111.572L98.8281 130.237L113.113 111.572L127.397 130.237L141.682 111.572L155.961 130.237L170.246 111.572L184.53 130.237L198.82 111.572L213.104 130.237L227.389 111.572L241.673 130.237L255.958 111.572L270.242 130.237L284.532 111.572L298.816 130.237L313.101 111.572L327.385 130.237L341.67 111.572L355.959 130.237L370.244 111.572L384.533 130.237L398.823 111.572L413.113 130.237" stroke="#0D3B66" stroke-opacity="0.025" stroke-width="5" stroke-miterlimit="10" stroke-linecap="round"/>
<path d="M-1.15332 260.391L13.1261 278.972L27.4106 260.391L41.6951 278.972L55.9796 260.391L70.259 278.972L84.5436 260.391L98.8281 278.972L113.113 260.391L127.397 278.972L141.682 260.391L155.961 278.972L170.246 260.391L184.53 278.972L198.82 260.391L213.104 278.972L227.389 260.391L241.673 278.972L255.958 260.391L270.242 278.972L284.532 260.391L298.816 278.972L313.101 260.391L327.385 278.972L341.67 260.391L355.959 278.972L370.244 260.391L384.533 278.972L398.823 260.391L413.113 278.972" stroke="#0D3B66" stroke-opacity="0.025" stroke-width="5" stroke-miterlimit="10" stroke-linecap="round"/>
<path d="M-1.15332 576.609L13.1261 595.191L27.4106 576.609L41.6951 595.191L55.9796 576.609L70.259 595.191L84.5436 576.609L98.8281 595.191L113.113 576.609L127.397 595.191L141.682 576.609L155.961 595.191L170.246 576.609L184.53 595.191L198.82 576.609L213.104 595.191L227.389 576.609L241.673 595.191L255.958 576.609L270.242 595.191L284.532 576.609L298.816 595.191L313.101 576.609L327.385 595.191L341.67 576.609L355.959 595.191L370.244 576.609L384.533 595.191L398.823 576.609L413.113 595.191" stroke="#0D3B66" stroke-opacity="0.025" stroke-width="5" stroke-miterlimit="10" stroke-linecap="round"/>
<path d="M-1.15332 409.209L13.1261 427.791L27.4106 409.209L41.6951 427.791L55.9796 409.209L70.259 427.791L84.5436 409.209L98.8281 427.791L113.113 409.209L127.397 427.791L141.682 409.209L155.961 427.791L170.246 409.209L184.53 427.791L198.82 409.209L213.104 427.791L227.389 409.209L241.673 427.791L255.958 409.209L270.242 427.791L284.532 409.209L298.816 427.791L313.101 409.209L327.385 427.791L341.67 409.209L355.959 427.791L370.244 409.209L384.533 427.791L398.823 409.209L413.113 427.791" stroke="#0D3B66" stroke-opacity="0.025" stroke-width="5" stroke-miterlimit="10" stroke-linecap="round"/>
<path d="M-1.15332 725.428L13.1261 744.009L27.4106 725.428L41.6951 744.009L55.9796 725.428L70.259 744.009L84.5436 725.428L98.8281 744.009L113.113 725.428L127.397 744.009L141.682 725.428L155.961 744.009L170.246 725.428L184.53 744.009L198.82 725.428L213.104 744.009L227.389 725.428L241.673 744.009L255.958 725.428L270.242 744.009L284.532 725.428L298.816 744.009L313.101 725.428L327.385 744.009L341.67 725.428L355.959 744.009L370.244 725.428L384.533 744.009L398.823 725.428L413.113 744.009" stroke="#0D3B66" stroke-opacity="0.025" stroke-width="5" stroke-miterlimit="10" stroke-linecap="round"/>
<path d="M-1.15332 799.837L13.1261 818.419L27.4106 799.837L41.6951 818.419L55.9796 799.837L70.259 818.419L84.5436 799.837L98.8281 818.419L113.113 799.837L127.397 818.419L141.682 799.837L155.961 818.419L170.246 799.837L184.53 818.419L198.82 799.837L213.104 818.419L227.389 799.837L241.673 818.419L255.958 799.837L270.242 818.419L284.532 799.837L298.816 818.419L313.101 799.837L327.385 818.419L341.67 799.837L355.959 818.419L370.244 799.837L384.533 818.419L398.823 799.837L413.113 818.419" stroke="#0D3B66" stroke-opacity="0.025" stroke-width="5" stroke-miterlimit="10" stroke-linecap="round"/>
<path d="M-1.15332 18.5815L13.1261 37.1629L27.4106 18.5815L41.6951 37.1629L55.9796 18.5815L70.259 37.1629L84.5436 18.5815L98.8281 37.1629L113.113 18.5815L127.397 37.1629L141.682 18.5815L155.961 37.1629L170.246 18.5815L184.53 37.1629L198.82 18.5815L213.104 37.1629L227.389 18.5815L241.673 37.1629L255.958 18.5815L270.242 37.1629L284.532 18.5815L298.816 37.1629L313.101 18.5815L327.385 37.1629L341.67 18.5815L355.959 37.1629L370.244 18.5815L384.533 37.1629L398.823 18.5815L413.113 37.1629" stroke="#0D3B66" stroke-opacity="0.025" stroke-width="5" stroke-miterlimit="10" stroke-linecap="round"/>
<path d="M-1.15332 167.4L13.1261 185.981L27.4106 167.4L41.6951 185.981L55.9796 167.4L70.259 185.981L84.5436 167.4L98.8281 185.981L113.113 167.4L127.397 185.981L141.682 167.4L155.961 185.981L170.246 167.4L184.53 185.981L198.82 167.4L213.104 185.981L227.389 167.4L241.673 185.981L255.958 167.4L270.242 185.981L284.532 167.4L298.816 185.981L313.101 167.4L327.385 185.981L341.67 167.4L355.959 185.981L370.244 167.4L384.533 185.981L398.823 167.4L413.113 185.981" stroke="#0D3B66" stroke-opacity="0.025" stroke-width="5" stroke-miterlimit="10" stroke-linecap="round"/>
<path d="M-1.15332 483.619L13.1261 502.2L27.4106 483.619L41.6951 502.2L55.9796 483.619L70.259 502.2L84.5436 483.619L98.8281 502.2L113.113 483.619L127.397 502.2L141.682 483.619L155.961 502.2L170.246 483.619L184.53 502.2L198.82 483.619L213.104 502.2L227.389 483.619L241.673 502.2L255.958 483.619L270.242 502.2L284.532 483.619L298.816 502.2L313.101 483.619L327.385 502.2L341.67 483.619L355.959 502.2L370.244 483.619L384.533 502.2L398.823 483.619L413.113 502.2" stroke="#0D3B66" stroke-opacity="0.025" stroke-width="5" stroke-miterlimit="10" stroke-linecap="round"/>
<path d="M-1.15332 316.219L13.1261 334.8L27.4106 316.219L41.6951 334.8L55.9796 316.219L70.259 334.8L84.5436 316.219L98.8281 334.8L113.113 316.219L127.397 334.8L141.682 316.219L155.961 334.8L170.246 316.219L184.53 334.8L198.82 316.219L213.104 334.8L227.389 316.219L241.673 334.8L255.958 316.219L270.242 334.8L284.532 316.219L298.816 334.8L313.101 316.219L327.385 334.8L341.67 316.219L355.959 334.8L370.244 316.219L384.533 334.8L398.823 316.219L413.113 334.8" stroke="#0D3B66" stroke-opacity="0.025" stroke-width="5" stroke-miterlimit="10" stroke-linecap="round"/>
<path d="M-1.15332 632.437L13.1261 651.018L27.4106 632.437L41.6951 651.018L55.9796 632.437L70.259 651.018L84.5436 632.437L98.8281 651.018L113.113 632.437L127.397 651.018L141.682 632.437L155.961 651.018L170.246 632.437L184.53 651.018L198.82 632.437L213.104 651.018L227.389 632.437L241.673 651.018L255.958 632.437L270.242 651.018L284.532 632.437L298.816 651.018L313.101 632.437L327.385 651.018L341.67 632.437L355.959 651.018L370.244 632.437L384.533 651.018L398.823 632.437L413.113 651.018" stroke="#0D3B66" stroke-opacity="0.025" stroke-width="5" stroke-miterlimit="10" stroke-linecap="round"/>
<path d="M-1.15332 92.9907L13.1261 111.572L27.4106 92.9907L41.6951 111.572L55.9796 92.9907L70.259 111.572L84.5436 92.9907L98.8281 111.572L113.113 92.9907L127.397 111.572L141.682 92.9907L155.961 111.572L170.246 92.9907L184.53 111.572L198.82 92.9907L213.104 111.572L227.389 92.9907L241.673 111.572L255.958 92.9907L270.242 111.572L284.532 92.9907L298.816 111.572L313.101 92.9907L327.385 111.572L341.67 92.9907L355.959 111.572L370.244 92.9907L384.533 111.572L398.823 92.9907L413.113 111.572" stroke="#0D3B66" stroke-opacity="0.025" stroke-width="5" stroke-miterlimit="10" stroke-linecap="round"/>
<path d="M-1.15332 241.809L13.1261 260.39L27.4106 241.809L41.6951 260.39L55.9796 241.809L70.259 260.39L84.5436 241.809L98.8281 260.39L113.113 241.809L127.397 260.39L141.682 241.809L155.961 260.39L170.246 241.809L184.53 260.39L198.82 241.809L213.104 260.39L227.389 241.809L241.673 260.39L255.958 241.809L270.242 260.39L284.532 241.809L298.816 260.39L313.101 241.809L327.385 260.39L341.67 241.809L355.959 260.39L370.244 241.809L384.533 260.39L398.823 241.809L413.113 260.39" stroke="#0D3B66" stroke-opacity="0.025" stroke-width="5" stroke-miterlimit="10" stroke-linecap="round"/>
<path d="M-1.15332 558.028L13.1261 576.609L27.4106 558.028L41.6951 576.609L55.9796 558.028L70.259 576.609L84.5436 558.028L98.8281 576.609L113.113 558.028L127.397 576.609L141.682 558.028L155.961 576.609L170.246 558.028L184.53 576.609L198.82 558.028L213.104 576.609L227.389 558.028L241.673 576.609L255.958 558.028L270.242 576.609L284.532 558.028L298.816 576.609L313.101 558.028L327.385 576.609L341.67 558.028L355.959 576.609L370.244 558.028L384.533 576.609L398.823 558.028L413.113 576.609" stroke="#0D3B66" stroke-opacity="0.025" stroke-width="5" stroke-miterlimit="10" stroke-linecap="round"/>
<path d="M-1.15332 390.628L13.1261 409.209L27.4106 390.628L41.6951 409.209L55.9796 390.628L70.259 409.209L84.5436 390.628L98.8281 409.209L113.113 390.628L127.397 409.209L141.682 390.628L155.961 409.209L170.246 390.628L184.53 409.209L198.82 390.628L213.104 409.209L227.389 390.628L241.673 409.209L255.958 390.628L270.242 409.209L284.532 390.628L298.816 409.209L313.101 390.628L327.385 409.209L341.67 390.628L355.959 409.209L370.244 390.628L384.533 409.209L398.823 390.628L413.113 409.209" stroke="#0D3B66" stroke-opacity="0.025" stroke-width="5" stroke-miterlimit="10" stroke-linecap="round"/>
<path d="M-1.15332 706.763L13.1261 725.428L27.4106 706.763L41.6951 725.428L55.9796 706.763L70.259 725.428L84.5436 706.763L98.8281 725.428L113.113 706.763L127.397 725.428L141.682 706.763L155.961 725.428L170.246 706.763L184.53 725.428L198.82 706.763L213.104 725.428L227.389 706.763L241.673 725.428L255.958 706.763L270.242 725.428L284.532 706.763L298.816 725.428L313.101 706.763L327.385 725.428L341.67 706.763L355.959 725.428L370.244 706.763L384.533 725.428L398.823 706.763L413.113 725.428" stroke="#0D3B66" stroke-opacity="0.025" stroke-width="5" stroke-miterlimit="10" stroke-linecap="round"/>
<path d="M-1.15332 781.172L13.1261 799.837L27.4106 781.172L41.6951 799.837L55.9796 781.172L70.259 799.837L84.5436 781.172L98.8281 799.837L113.113 781.172L127.397 799.837L141.682 781.172L155.961 799.837L170.246 781.172L184.53 799.837L198.82 781.172L213.104 799.837L227.389 781.172L241.673 799.837L255.958 781.172L270.242 799.837L284.532 781.172L298.816 799.837L313.101 781.172L327.385 799.837L341.67 781.172L355.959 799.837L370.244 781.172L384.533 799.837L398.823 781.172L413.113 799.837" stroke="#0D3B66" stroke-opacity="0.025" stroke-width="5" stroke-miterlimit="10" stroke-linecap="round"/>
<path d="M-1.15332 55.8281L13.1261 74.4095L27.4106 55.8281L41.6951 74.4095L55.9796 55.8281L70.259 74.4095L84.5436 55.8281L98.8281 74.4095L113.113 55.8281L127.397 74.4095L141.682 55.8281L155.961 74.4095L170.246 55.8281L184.53 74.4095L198.82 55.8281L213.104 74.4095L227.389 55.8281L241.673 74.4095L255.958 55.8281L270.242 74.4095L284.532 55.8281L298.816 74.4095L313.101 55.8281L327.385 74.4095L341.67 55.8281L355.959 74.4095L370.244 55.8281L384.533 74.4095L398.823 55.8281L413.113 74.4095" stroke="#0D3B66" stroke-opacity="0.025" stroke-width="5" stroke-miterlimit="10" stroke-linecap="round"/>
<path d="M-1.15332 204.563L13.1261 223.228L27.4106 204.563L41.6951 223.228L55.9796 204.563L70.259 223.228L84.5436 204.563L98.8281 223.228L113.113 204.563L127.397 223.228L141.682 204.563L155.961 223.228L170.246 204.563L184.53 223.228L198.82 204.563L213.104 223.228L227.389 204.563L241.673 223.228L255.958 204.563L270.242 223.228L284.532 204.563L298.816 223.228L313.101 204.563L327.385 223.228L341.67 204.563L355.959 223.228L370.244 204.563L384.533 223.228L398.823 204.563L413.113 223.228" stroke="#0D3B66" stroke-opacity="0.025" stroke-width="5" stroke-miterlimit="10" stroke-linecap="round"/>
<path d="M-1.15332 520.781L13.1261 539.363L27.4106 520.781L41.6951 539.363L55.9796 520.781L70.259 539.363L84.5436 520.781L98.8281 539.363L113.113 520.781L127.397 539.363L141.682 520.781L155.961 539.363L170.246 520.781L184.53 539.363L198.82 520.781L213.104 539.363L227.389 520.781L241.673 539.363L255.958 520.781L270.242 539.363L284.532 520.781L298.816 539.363L313.101 520.781L327.385 539.363L341.67 520.781L355.959 539.363L370.244 520.781L384.533 539.363L398.823 520.781L413.113 539.363" stroke="#0D3B66" stroke-opacity="0.025" stroke-width="5" stroke-miterlimit="10" stroke-linecap="round"/>
<path d="M-1.15332 353.381L13.1261 371.963L27.4106 353.381L41.6951 371.963L55.9796 353.381L70.259 371.963L84.5436 353.381L98.8281 371.963L113.113 353.381L127.397 371.963L141.682 353.381L155.961 371.963L170.246 353.381L184.53 371.963L198.82 353.381L213.104 371.963L227.389 353.381L241.673 371.963L255.958 353.381L270.242 371.963L284.532 353.381L298.816 371.963L313.101 353.381L327.385 371.963L341.67 353.381L355.959 371.963L370.244 353.381L384.533 371.963L398.823 353.381L413.113 371.963" stroke="#0D3B66" stroke-opacity="0.025" stroke-width="5" stroke-miterlimit="10" stroke-linecap="round"/>
<path d="M-1.15332 669.6L13.1261 688.181L27.4106 669.6L41.6951 688.181L55.9796 669.6L70.259 688.181L84.5436 669.6L98.8281 688.181L113.113 669.6L127.397 688.181L141.682 669.6L155.961 688.181L170.246 669.6L184.53 688.181L198.82 669.6L213.104 688.181L227.389 669.6L241.673 688.181L255.958 669.6L270.242 688.181L284.532 669.6L298.816 688.181L313.101 669.6L327.385 688.181L341.67 669.6L355.959 688.181L370.244 669.6L384.533 688.181L398.823 669.6L413.113 688.181" stroke="#0D3B66" stroke-opacity="0.025" stroke-width="5" stroke-miterlimit="10" stroke-linecap="round"/>
<path d="M-1.15332 130.237L13.1261 148.819L27.4106 130.237L41.6951 148.819L55.9796 130.237L70.259 148.819L84.5436 130.237L98.8281 148.819L113.113 130.237L127.397 148.819L141.682 130.237L155.961 148.819L170.246 130.237L184.53 148.819L198.82 130.237L213.104 148.819L227.389 130.237L241.673 148.819L255.958 130.237L270.242 148.819L284.532 130.237L298.816 148.819L313.101 130.237L327.385 148.819L341.67 130.237L355.959 148.819L370.244 130.237L384.533 148.819L398.823 130.237L413.113 148.819" stroke="#0D3B66" stroke-opacity="0.025" stroke-width="5" stroke-miterlimit="10" stroke-linecap="round"/>
<path d="M-1.15332 446.372L13.1261 465.037L27.4106 446.372L41.6951 465.037L55.9796 446.372L70.259 465.037L84.5436 446.372L98.8281 465.037L113.113 446.372L127.397 465.037L141.682 446.372L155.961 465.037L170.246 446.372L184.53 465.037L198.82 446.372L213.104 465.037L227.389 446.372L241.673 465.037L255.958 446.372L270.242 465.037L284.532 446.372L298.816 465.037L313.101 446.372L327.385 465.037L341.67 446.372L355.959 465.037L370.244 446.372L384.533 465.037L398.823 446.372L413.113 465.037" stroke="#0D3B66" stroke-opacity="0.025" stroke-width="5" stroke-miterlimit="10" stroke-linecap="round"/>
<path d="M-1.15332 278.972L13.1261 297.637L27.4106 278.972L41.6951 297.637L55.9796 278.972L70.259 297.637L84.5436 278.972L98.8281 297.637L113.113 278.972L127.397 297.637L141.682 278.972L155.961 297.637L170.246 278.972L184.53 297.637L198.82 278.972L213.104 297.637L227.389 278.972L241.673 297.637L255.958 278.972L270.242 297.637L284.532 278.972L298.816 297.637L313.101 278.972L327.385 297.637L341.67 278.972L355.959 297.637L370.244 278.972L384.533 297.637L398.823 278.972L413.113 297.637" stroke="#0D3B66" stroke-opacity="0.025" stroke-width="5" stroke-miterlimit="10" stroke-linecap="round"/>
<path d="M-1.15332 595.191L13.1261 613.772L27.4106 595.191L41.6951 613.772L55.9796 595.191L70.259 613.772L84.5436 595.191L98.8281 613.772L113.113 595.191L127.397 613.772L141.682 595.191L155.961 613.772L170.246 595.191L184.53 613.772L198.82 595.191L213.104 613.772L227.389 595.191L241.673 613.772L255.958 595.191L270.242 613.772L284.532 595.191L298.816 613.772L313.101 595.191L327.385 613.772L341.67 595.191L355.959 613.772L370.244 595.191L384.533 613.772L398.823 595.191L413.113 613.772" stroke="#0D3B66" stroke-opacity="0.025" stroke-width="5" stroke-miterlimit="10" stroke-linecap="round"/>
<path d="M-1.15332 427.791L13.1261 446.372L27.4106 427.791L41.6951 446.372L55.9796 427.791L70.259 446.372L84.5436 427.791L98.8281 446.372L113.113 427.791L127.397 446.372L141.682 427.791L155.961 446.372L170.246 427.791L184.53 446.372L198.82 427.791L213.104 446.372L227.389 427.791L241.673 446.372L255.958 427.791L270.242 446.372L284.532 427.791L298.816 446.372L313.101 427.791L327.385 446.372L341.67 427.791L355.959 446.372L370.244 427.791L384.533 446.372L398.823 427.791L413.113 446.372" stroke="#0D3B66" stroke-opacity="0.025" stroke-width="5" stroke-miterlimit="10" stroke-linecap="round"/>
<path d="M-1.15332 744.009L13.1261 762.591L27.4106 744.009L41.6951 762.591L55.9796 744.009L70.259 762.591L84.5436 744.009L98.8281 762.591L113.113 744.009L127.397 762.591L141.682 744.009L155.961 762.591L170.246 744.009L184.53 762.591L198.82 744.009L213.104 762.591L227.389 744.009L241.673 762.591L255.958 744.009L270.242 762.591L284.532 744.009L298.816 762.591L313.101 744.009L327.385 762.591L341.67 744.009L355.959 762.591L370.244 744.009L384.533 762.591L398.823 744.009L413.113 762.591" stroke="#0D3B66" stroke-opacity="0.025" stroke-width="5" stroke-miterlimit="10" stroke-linecap="round"/>
<path d="M-1.15332 818.418L13.1261 837L27.4106 818.418L41.6951 837L55.9796 818.418L70.259 837L84.5436 818.418L98.8281 837L113.113 818.418L127.397 837L141.682 818.418L155.961 837L170.246 818.418L184.53 837L198.82 818.418L213.104 837L227.389 818.418L241.673 837L255.958 818.418L270.242 837L284.532 818.418L298.816 837L313.101 818.418L327.385 837L341.67 818.418L355.959 837L370.244 818.418L384.533 837L398.823 818.418L413.113 837" stroke="#0D3B66" stroke-opacity="0.025" stroke-width="5" stroke-miterlimit="10" stroke-linecap="round"/>
</g>
<defs>
<clipPath id="clip0_4001_2508">
<rect width="412" height="837" fill="white"/>
</clipPath>
</defs>
</svg>
